# xmcd
#
# Track frame offsets:
#	150
#	14990
#	32196
#	54277
#	68407
#	89063
#	105238
#	125065
#	140023
#	156064
#	166876
#
# Disc length: 2533 seconds
#
# Revision: 1
# Processed by: cddbd v1.5.1PL0 Copyright (c) Steve Scherf et al.
# Submitted via: audiograbber 1.82.01
#
DISCID=9309e30b
DTITLE=Two Purple - R.E.M. and Cranberries
DYEAR=2004
DGENRE=Pop
TTITLE0=To The One I Love
TTITLE1=Ode To My Family
TTITLE2=Everybody Hurts
TTITLE3=Just My Imagination
TTITLE4=Man On The Moon
TTITLE5=Animal Instinct
TTITLE6=Loosing My Religion
TTITLE7=Zombie
TTITLE8=Imagination Of Life
TTITLE9=No Need To Argue
TTITLE10=Dreams (Frühstücksversion)
EXTD=
EXTT0=
EXTT1=
EXTT2=
EXTT3=
EXTT4=
EXTT5=
EXTT6=
EXTT7=
EXTT8=
EXTT9=
EXTT10=
PLAYORDER=
